<svg width="96" height="96" viewBox="0 0 96 96" fill="none" xmlns="http://www.w3.org/2000/svg">
<path d="M0 26.4828C0 11.8567 11.8567 0 26.4828 0H69.5172C84.1433 0 96 11.8567 96 26.4828V69.5172C96 84.1433 84.1433 96 69.5172 96H26.4828C11.8567 96 0 84.1433 0 69.5172V26.4828Z" fill="#002554"/>
<path d="M50.6251 30.763C51.2459 30.1424 52.0877 29.7938 52.9655 29.7938C53.8433 29.7938 54.6852 30.1424 55.3059 30.763L70.2025 45.6596C70.8231 46.2804 71.1717 47.1222 71.1717 48C71.1717 48.8778 70.8231 49.7196 70.2025 50.3404L55.3059 65.237C54.6816 65.84 53.8454 66.1736 52.9774 66.1661C52.1095 66.1586 51.2792 65.8104 50.6654 65.1966C50.0517 64.5829 49.7035 63.7526 49.696 62.8846C49.6884 62.0167 50.0221 61.1805 50.6251 60.5561L59.5862 51.3103H28.1379C27.26 51.3103 26.418 50.9616 25.7972 50.3408C25.1764 49.72 24.8276 48.878 24.8276 48C24.8276 47.122 25.1764 46.28 25.7972 45.6592C26.418 45.0384 27.26 44.6897 28.1379 44.6897H59.5862L50.6251 35.4439C50.0045 34.8231 49.6559 33.9812 49.6559 33.1034C49.6559 32.2257 50.0045 31.3838 50.6251 30.763Z" fill="white"/>
</svg>
