<svg width="96" height="96" viewBox="0 0 96 96" fill="none" xmlns="http://www.w3.org/2000/svg">
<path d="M0 26.4828C0 11.8567 11.8567 0 26.4828 0H69.5172C84.1433 0 96 11.8567 96 26.4828V69.5172C96 84.1433 84.1433 96 69.5172 96H26.4828C11.8567 96 0 84.1433 0 69.5172V26.4828Z" fill="#002554"/>
<path d="M58.6163 17.5198L71.8577 30.7479C72.4281 31.3175 72.7711 32.0757 72.8223 32.8802C72.8735 33.6847 72.6294 34.4802 72.1357 35.1175L71.861 35.4287L58.6196 48.69C58.0252 49.29 57.224 49.6401 56.38 49.6688C55.5359 49.6974 54.7128 49.4024 54.0792 48.844C53.4455 48.2856 53.0493 47.5062 52.9715 46.6653C52.8937 45.8243 53.1402 44.9854 53.6607 44.3203L53.9354 44.0091L61.5161 36.4218H26.4828C25.6719 36.4217 24.8894 36.124 24.2835 35.5852C23.6776 35.0465 23.2905 34.304 23.1956 33.4988L23.1724 33.1082C23.1725 32.2974 23.4702 31.5148 24.009 30.9089C24.5478 30.303 25.2902 29.9159 26.0954 29.821L26.4828 29.7978H61.5393L53.9388 22.2072C53.3683 21.6376 53.0253 20.8794 52.9741 20.0749C52.9229 19.2704 53.167 18.4749 53.6607 17.8375L53.9354 17.5231C54.505 16.9526 55.2632 16.6096 56.0677 16.5584C56.8723 16.5072 57.6678 16.7513 58.3051 17.245L58.6163 17.5198ZM72.7978 65.8243L72.8177 66.2116C72.8175 67.0224 72.5199 67.805 71.9811 68.4109C71.4423 69.0168 70.6999 69.4039 69.8946 69.4988L69.5073 69.522H34.4739L42.0679 77.1126C42.6378 77.6826 42.9802 78.441 43.0308 79.2455C43.0814 80.05 42.8367 80.8453 42.3426 81.4822L42.0679 81.7934C41.4983 82.3639 40.7401 82.7069 39.9356 82.7581C39.1311 82.8093 38.3355 82.5651 37.6982 82.0715L37.387 81.7934L24.1457 68.5653C23.5752 67.9957 23.2322 67.2375 23.181 66.433C23.1298 65.6285 23.3739 64.8329 23.8676 64.1956L24.1423 63.8844L37.3837 50.6298C37.9781 50.0298 38.7793 49.6796 39.6233 49.651C40.4674 49.6224 41.2905 49.9174 41.9241 50.4758C42.5578 51.0341 42.9541 51.8135 43.0318 52.6545C43.1096 53.4955 42.8631 54.3344 42.3426 54.9995L42.0679 55.3106L34.4872 62.9013H69.5106C70.3214 62.9014 71.104 63.1991 71.7099 63.7378C72.3158 64.2766 72.7029 65.0191 72.7978 65.8243Z" fill="white"/>
</svg>
